<svg width="513" height="513" viewBox="0 0 513 513" fill="none" xmlns="http://www.w3.org/2000/svg">
<ellipse cx="219.564" cy="392.457" rx="101.57" ry="13.5427" fill="black" fill-opacity="0.12"/>
<path d="M415.415 133.516C415.415 111.102 404.76 89.5885 385.799 73.7361C366.84 57.888 341.128 48.9806 314.303 48.9792L135.736 48.9792C108.897 48.946 83.129 57.8349 64.1284 73.6833C54.4159 81.7912 46.8803 97.2449 41.8316 115.406L167.299 167.85L321.534 232.319C333.676 237.65 341.232 248.206 341.076 259.666L341.076 308.73C341.076 326.995 338.523 346.838 333.695 364.206L362.459 376.228C373.793 381.015 387.294 380.526 398.097 374.94C408.897 369.365 415.465 359.485 415.415 348.869L415.415 133.516Z" fill="url(#paint0_linear_231_845)"/>
<path d="M471.164 250.423C471.321 238.968 463.764 228.417 451.622 223.089L297.388 158.649L212.843 129.598C201.51 124.813 188.01 125.302 177.206 130.886C166.405 136.458 159.837 146.334 159.888 156.946L159.888 372.201C159.888 394.606 170.542 416.109 189.503 431.954C208.463 447.795 210.945 440.967 237.77 440.968L369.877 421.312C396.716 421.345 422.484 412.46 441.485 396.619C460.486 380.765 471.164 336.813 471.164 299.466L471.164 250.423Z" fill="url(#paint1_linear_231_845)"/>
<path d="M471.164 291.128C471.173 290.419 471.158 289.713 471.109 289.012C464.806 288.805 458.531 287.483 452.721 285.029L103.04 138.865C94.9324 144.635 90.1522 153.15 90.1956 162.206L90.1956 377.559C90.1961 399.973 100.853 421.486 119.814 437.338C138.773 453.185 164.484 462.094 191.309 462.096L369.874 462.096C396.711 462.129 422.482 453.239 441.482 437.392C460.482 421.53 471.163 377.558 471.164 340.195L471.164 291.128Z" fill="url(#paint2_linear_231_845)"/>
<defs>
<linearGradient id="paint0_linear_231_845" x1="-465.628" y1="459.063" x2="601.976" y2="668.156" gradientUnits="userSpaceOnUse">
<stop offset="0.0480769"/>
<stop offset="0.471154" stop-color="#B09EF1"/>
<stop offset="0.817308" stop-color="#DA6BE2"/>
<stop offset="1" stop-color="#EB68F4"/>
</linearGradient>
<linearGradient id="paint1_linear_231_845" x1="983.531" y1="11.4137" x2="-97.805" y2="-203.421" gradientUnits="userSpaceOnUse">
<stop offset="0.0480769" stop-color="#167AA2"/>
<stop offset="0.557692" stop-color="#B1ECF4"/>
<stop offset="1" stop-color="#91F9ED"/>
</linearGradient>
<linearGradient id="paint2_linear_231_845" x1="1025.34" y1="55.9443" x2="-56.0229" y2="-158.794" gradientUnits="userSpaceOnUse">
<stop offset="0.322115" stop-color="#BFA6B5"/>
<stop offset="0.634615" stop-color="#7773C7"/>
<stop offset="0.793269" stop-color="#4B427E"/>
</linearGradient>
</defs>
</svg>
