<svg width="192" height="192" viewBox="0 0 192 192" fill="none" xmlns="http://www.w3.org/2000/svg">
<path d="M139.58 67.2456C144.587 67.2457 149.388 68.9984 152.929 72.1157C156.469 75.2331 158.46 79.463 158.46 83.8716V113.231C158.46 117.639 156.469 121.869 152.929 124.987C149.388 128.104 144.587 129.856 139.58 129.856H125.271C122.716 129.887 120.356 128.656 119.157 126.67L90.3564 75.9517V75.9536C89.2896 74.088 89.3966 71.8681 90.6445 70.0923C91.8925 68.3166 94.0981 67.2369 96.4697 67.2456H139.58Z" fill="url(#paint0_linear_220_132)"/>
<path d="M56.7646 63.8984C59.325 63.8723 61.6841 65.1137 62.875 67.1104L91.6758 117.829C92.7451 119.693 92.6366 121.912 91.3887 123.688C90.1432 125.465 87.9345 126.544 85.5625 126.535H52.4268C47.42 126.535 42.6172 124.782 39.0762 121.665C35.5356 118.548 33.5449 114.32 33.5449 109.909V80.5508C33.5375 76.1378 35.5229 71.9014 39.0635 68.7773C42.6065 65.6533 47.4128 63.8985 52.4268 63.8984H56.7646Z" fill="url(#paint1_linear_220_132)"/>
<path d="M80.941 59.3034C78.978 60.2347 76.7077 60.3831 74.6295 59.7185C72.5535 59.0518 70.8389 57.6258 69.8698 55.7525L62.5282 41.7164H62.526C60.468 37.8256 62.1103 33.0807 66.1969 31.1194C70.2856 29.16 75.2692 30.7236 77.3268 34.6166L84.6683 48.6527C85.6758 50.5325 85.8475 52.7199 85.1472 54.722C84.447 56.7244 82.9312 58.3743 80.941 59.3034Z" fill="url(#paint2_linear_220_132)"/>
<path d="M105.519 136.302C109.056 134.744 113.343 136.03 115.103 139.181L122.669 152.673V152.671C124.48 155.807 123.098 159.658 119.579 161.272C116.063 162.887 111.744 161.652 109.932 158.518L102.366 145.026C101.457 143.502 101.277 141.714 101.872 140.07C102.466 138.426 103.782 137.068 105.519 136.302Z" fill="url(#paint3_linear_220_132)"/>
<defs>
<linearGradient id="paint0_linear_220_132" x1="109.404" y1="49.2879" x2="138.608" y2="146.314" gradientUnits="userSpaceOnUse">
<stop offset="0.115385" stop-color="#60CDC0"/>
<stop offset="0.658654" stop-color="#1E7594"/>
</linearGradient>
<linearGradient id="paint1_linear_220_132" x1="62.9762" y1="63.8984" x2="62.9762" y2="126.535" gradientUnits="userSpaceOnUse">
<stop offset="0.192308" stop-color="#744EFF"/>
<stop offset="0.774038" stop-color="#462F99"/>
</linearGradient>
<linearGradient id="paint2_linear_220_132" x1="60.8759" y1="18.1721" x2="84.4817" y2="60.6745" gradientUnits="userSpaceOnUse">
<stop stop-color="#DA6BE2"/>
<stop offset="1" stop-color="#5D3697"/>
</linearGradient>
<linearGradient id="paint3_linear_220_132" x1="112.496" y1="135.64" x2="112.496" y2="161.982" gradientUnits="userSpaceOnUse">
<stop stop-color="#5AB1D3"/>
<stop offset="1" stop-color="#195B53"/>
</linearGradient>
</defs>
</svg>
