<svg width="157" height="54" viewBox="0 0 157 54" fill="none" xmlns="http://www.w3.org/2000/svg">
<path d="M62.2176 21.158H64.8467L65.2152 22.0425C65.5756 21.7149 65.9114 21.4856 66.2226 21.3545C66.5502 21.2235 67.0334 21.158 67.6722 21.158H69.8836C70.5715 21.8296 71.1121 22.6977 71.5052 23.7624C71.8983 24.8271 72.0949 25.9983 72.0949 27.276C72.0949 30.0115 71.2759 32.1573 69.6379 33.7134H67.5494C66.6812 33.7134 65.9933 33.4841 65.4855 33.0254V37.3989H62.2176V21.158ZM65.4855 31.1335H67.8442C68.4503 30.1016 68.7533 28.8485 68.7533 27.3743C68.7533 25.9 68.4421 24.6879 67.8197 23.7379H65.4855V31.1335ZM83.7813 33.7134H78.425C76.787 32.19 75.968 30.1097 75.968 27.4725C75.968 26.1457 76.1481 24.9909 76.5085 24.0081C76.8852 23.0253 77.4749 22.0753 78.2776 21.158H84.027C84.8788 22.1408 85.4603 23.099 85.7715 24.0327C86.0827 24.95 86.2383 26.0966 86.2383 27.4725C86.2383 30.1097 85.4193 32.19 83.7813 33.7134ZM80.1695 31.1335H82.0368C82.6265 29.9869 82.9213 28.6847 82.9213 27.2268C82.9213 25.769 82.6183 24.606 82.0122 23.7379H80.1695C79.5798 24.5732 79.2849 25.7608 79.2849 27.3005C79.2849 28.8239 79.5798 30.1016 80.1695 31.1335ZM99.9629 33.7134H97.4813L97.0391 32.8288C96.6787 33.1565 96.3347 33.3858 96.0071 33.5168C95.6959 33.6479 95.2209 33.7134 94.582 33.7134H92.4444C91.7237 33.0254 91.1504 32.1245 90.7245 31.0107C90.315 29.8968 90.1103 28.6519 90.1103 27.276C90.1103 25.8837 90.315 24.7043 90.7245 23.7379C91.1504 22.7714 91.7483 21.9115 92.5181 21.158H94.6312C95.4993 21.158 96.1873 21.3873 96.6951 21.8459V16.5142H99.9629V33.7134ZM96.6951 23.7379H94.3363C93.7303 24.7698 93.4272 26.0393 93.4272 27.5462C93.4272 29.0368 93.7221 30.2326 94.3118 31.1335H96.6951V23.7379ZM105.753 21.158H111.183V23.7379H107.35L109.684 27.2023C110.733 28.6929 111.314 29.7166 111.429 30.2735C111.494 30.5356 111.527 30.8059 111.527 31.0844C111.527 32.2474 111.093 33.1237 110.225 33.7134H103.959V31.1335H108.456L105.827 27.276C105.712 27.0958 105.532 26.8419 105.286 26.5143C105.057 26.1867 104.877 25.9246 104.746 25.728C104.615 25.5151 104.525 25.3595 104.475 25.2612C104.426 25.1629 104.361 25.0401 104.279 24.8927C104.197 24.7289 104.14 24.5896 104.107 24.475C104.041 24.1637 104.009 23.9098 104.009 23.7133C104.009 22.5175 104.59 21.6658 105.753 21.158ZM118.815 16.5142V33.7134H115.572V16.5142H118.815ZM123.379 33.7134V21.158H126.623V33.7134H123.379ZM123.379 16.5142H126.623V19.8312H123.379V16.5142ZM134.234 27.3251C134.234 28.0131 134.34 28.7174 134.553 29.4382C134.766 30.1425 135.061 30.7076 135.438 31.1335H139.123V33.7134H133.742C131.81 32.1736 130.843 30.0442 130.843 27.3251C130.843 24.606 131.875 22.5503 133.939 21.158H139.123V23.7379H135.438C134.635 24.5732 134.234 25.769 134.234 27.3251ZM148.414 23.7379H146.571C146.325 24.0327 146.121 24.4422 145.957 24.9664C145.809 25.4905 145.736 25.9983 145.736 26.4897H149.249C149.282 25.9983 149.216 25.4905 149.053 24.9664C148.889 24.4258 148.676 24.0163 148.414 23.7379ZM151.755 31.1335V33.7134H145.514C144.368 32.9435 143.557 31.9935 143.082 30.8632C142.623 29.7166 142.394 28.5618 142.394 27.3988C142.394 24.7125 143.41 22.6322 145.441 21.158H149.421C150.519 21.9606 151.264 22.8124 151.657 23.7133C152.05 24.6142 152.247 25.5233 152.247 26.4406C152.247 27.3579 152.173 28.1441 152.026 28.7993H145.908C145.957 29.1761 146.096 29.6101 146.325 30.1016C146.571 30.5766 146.833 30.9206 147.112 31.1335H151.755Z" fill="url(#paint0_linear_230_49)"/>
<path d="M38.7859 16.447C40.4338 16.4471 42.0139 17.1021 43.1794 18.2673C44.3447 19.4326 45.0006 21.014 45.0007 22.6619V33.6375C45.0007 35.2855 44.3447 36.8674 43.1794 38.033C42.0141 39.1981 40.4338 39.8532 38.7859 39.8533H34.0759C33.2347 39.8647 32.4577 39.4042 32.0632 38.6619L22.5828 19.7019L22.5212 19.5701C22.2374 18.902 22.2926 18.1337 22.6775 17.5115C23.0883 16.8476 23.8148 16.4437 24.5955 16.447H38.7859Z" fill="url(#paint1_linear_230_49)"/>
<path d="M11.5259 15.1956C12.3685 15.1859 13.1447 15.6504 13.5366 16.3967L23.0171 35.3567C23.3691 36.0533 23.3331 36.8831 22.9224 37.5471C22.5125 38.211 21.786 38.6147 21.0054 38.6116H10.0981C8.45005 38.6116 6.86823 37.9567 5.70264 36.7913C4.53735 35.6259 3.88242 34.0455 3.88232 32.3967V21.4211C3.87987 19.7715 4.53343 18.1877 5.69873 17.0198C6.86497 15.8519 8.44771 15.1956 10.0981 15.1956H11.5259Z" fill="url(#paint2_linear_230_49)"/>
<path d="M19.4837 13.4781C18.8375 13.8263 18.0902 13.8817 17.4061 13.6333C16.7228 13.3841 16.1584 12.851 15.8394 12.1506L13.4228 6.90342H13.422C12.7446 5.44889 13.2852 3.67506 14.6304 2.94186C15.9762 2.20937 17.6167 2.79392 18.294 4.24926L20.7106 9.49648C21.0422 10.1992 21.0987 11.0169 20.8682 11.7654C20.6377 12.514 20.1387 13.1308 19.4837 13.4781Z" fill="url(#paint3_linear_230_49)"/>
<path d="M27.5738 42.2631C28.7383 41.6805 30.1493 42.1615 30.7287 43.3392L33.2192 48.3829V48.3822C33.8152 49.5547 33.3601 50.9944 32.2021 51.5978C31.0447 52.2014 29.6228 51.7399 29.0266 50.5681L26.5361 45.5244C26.2368 44.9547 26.1776 44.286 26.3733 43.6715C26.569 43.057 27.0022 42.5492 27.5738 42.2631Z" fill="url(#paint4_linear_230_49)"/>
<defs>
<linearGradient id="paint0_linear_230_49" x1="127.727" y1="-9.35263" x2="130.092" y2="61.6367" gradientUnits="userSpaceOnUse">
<stop offset="0.149038" stop-color="#3AC2CE"/>
<stop offset="0.197115" stop-color="#71C2CC"/>
<stop offset="0.427885" stop-color="#D3EBFF"/>
<stop offset="0.581731" stop-color="#B8D3FF"/>
<stop offset="0.774038" stop-color="#160B3F"/>
<stop offset="0.9999" stop-color="#29084A"/>
<stop offset="1" stop-color="#2C2323"/>
</linearGradient>
<linearGradient id="paint1_linear_230_49" x1="28.8528" y1="9.73373" x2="40.9604" y2="45.1533" gradientUnits="userSpaceOnUse">
<stop offset="0.115385" stop-color="#60CDC0"/>
<stop offset="0.658654" stop-color="#1E7594"/>
</linearGradient>
<linearGradient id="paint2_linear_230_49" x1="13.5702" y1="15.1956" x2="13.5702" y2="38.6115" gradientUnits="userSpaceOnUse">
<stop offset="0.192308" stop-color="#744EFF"/>
<stop offset="0.774038" stop-color="#462F99"/>
</linearGradient>
<linearGradient id="paint3_linear_230_49" x1="12.8789" y1="-1.89833" x2="22.2602" y2="12.9745" gradientUnits="userSpaceOnUse">
<stop stop-color="#DA6BE2"/>
<stop offset="1" stop-color="#5D3697"/>
</linearGradient>
<linearGradient id="paint4_linear_230_49" x1="29.8705" y1="42.0156" x2="29.8705" y2="51.8631" gradientUnits="userSpaceOnUse">
<stop stop-color="#5AB1D3"/>
<stop offset="1" stop-color="#195B53"/>
</linearGradient>
</defs>
</svg>
