<svg width="1163" height="337" viewBox="0 0 1163 337" fill="none" xmlns="http://www.w3.org/2000/svg">
<ellipse cx="142.5" cy="278" rx="82.5" ry="11" fill="black" fill-opacity="0.12"/>
<path d="M261.469 102.59C261.469 90.5021 255.722 78.8997 245.497 70.3507C235.273 61.8041 221.406 57.0009 206.94 57.0001L110.641 57.0001C96.1678 56.9822 82.271 61.7755 72.0243 70.3224C66.7866 74.6948 62.7225 83.0286 59.9998 92.8224L127.664 121.106L210.841 155.872C217.389 158.747 221.463 164.44 221.379 170.62L221.379 197.08C221.379 206.93 220.003 217.631 217.399 226.997L232.91 233.481C239.022 236.062 246.303 235.798 252.129 232.785C257.953 229.779 261.496 224.451 261.469 218.726L261.469 102.59Z" fill="url(#paint0_linear_231_588)"/>
<path d="M291.533 165.635C291.617 159.458 287.542 153.768 280.994 150.894L197.818 116.143L152.224 100.476C146.112 97.8958 138.832 98.1596 133.006 101.171C127.181 104.176 123.639 109.502 123.666 115.224L123.666 231.308C123.666 243.391 129.412 254.987 139.637 263.532C149.862 272.075 151.201 268.393 165.667 268.393L236.91 257.793C251.384 257.811 265.281 253.02 275.527 244.477C285.774 235.927 291.533 212.224 291.533 192.083L291.533 165.635Z" fill="url(#paint1_linear_231_588)"/>
<path d="M291.533 187.587C291.538 187.205 291.53 186.824 291.503 186.446C288.104 186.334 284.72 185.621 281.587 184.298L93.009 105.474C88.6367 108.585 86.0588 113.177 86.0822 118.061L86.0822 234.198C86.0824 246.285 91.8297 257.887 102.055 266.436C112.279 274.982 126.145 279.787 140.611 279.787L236.909 279.787C251.382 279.805 265.279 275.011 275.526 266.465C285.772 257.911 291.533 234.197 291.533 214.048L291.533 187.587Z" fill="url(#paint2_linear_231_588)"/>
<path d="M442.272 170.824C442.272 176.195 441.005 181.261 438.472 186.024C435.939 190.787 431.885 194.688 426.312 197.728C420.739 200.667 413.595 202.136 404.88 202.136H385.728V245H368.4V139.36H404.88C412.987 139.36 419.827 140.779 425.4 143.616C431.075 146.352 435.28 150.101 438.016 154.864C440.853 159.627 442.272 164.947 442.272 170.824ZM404.88 188C411.467 188 416.381 186.531 419.624 183.592C422.867 180.552 424.488 176.296 424.488 170.824C424.488 159.272 417.952 153.496 404.88 153.496H385.728V188H404.88ZM508.982 246.064C499.153 246.064 490.084 243.784 481.774 239.224C473.566 234.563 467.03 228.128 462.166 219.92C457.404 211.611 455.022 202.288 455.022 191.952C455.022 181.616 457.404 172.344 462.166 164.136C467.03 155.928 473.566 149.544 481.774 144.984C490.084 140.323 499.153 137.992 508.982 137.992C518.913 137.992 527.982 140.323 536.19 144.984C544.5 149.544 551.036 155.928 555.798 164.136C560.561 172.344 562.942 181.616 562.942 191.952C562.942 202.288 560.561 211.611 555.798 219.92C551.036 228.128 544.5 234.563 536.19 239.224C527.982 243.784 518.913 246.064 508.982 246.064ZM508.982 231.016C515.974 231.016 522.206 229.445 527.678 226.304C533.15 223.061 537.406 218.501 540.446 212.624C543.588 206.645 545.158 199.755 545.158 191.952C545.158 184.149 543.588 177.309 540.446 171.432C537.406 165.555 533.15 161.045 527.678 157.904C522.206 154.763 515.974 153.192 508.982 153.192C501.99 153.192 495.758 154.763 490.286 157.904C484.814 161.045 480.508 165.555 477.366 171.432C474.326 177.309 472.806 184.149 472.806 191.952C472.806 199.755 474.326 206.645 477.366 212.624C480.508 218.501 484.814 223.061 490.286 226.304C495.758 229.445 501.99 231.016 508.982 231.016ZM616.498 139.36C627.746 139.36 637.575 141.539 645.986 145.896C654.498 150.152 661.034 156.333 665.594 164.44C670.255 172.445 672.586 181.819 672.586 192.56C672.586 203.301 670.255 212.624 665.594 220.528C661.034 228.432 654.498 234.512 645.986 238.768C637.575 242.923 627.746 245 616.498 245H581.994V139.36H616.498ZM616.498 230.864C628.86 230.864 638.335 227.52 644.922 220.832C651.508 214.144 654.802 204.72 654.802 192.56C654.802 180.299 651.508 170.723 644.922 163.832C638.335 156.941 628.86 153.496 616.498 153.496H599.322V230.864H616.498ZM726.567 246.064C719.474 246.064 713.09 244.848 707.415 242.416C701.741 239.883 697.282 236.336 694.039 231.776C690.797 227.216 689.175 221.896 689.175 215.816H707.719C708.125 220.376 709.898 224.125 713.039 227.064C716.282 230.003 720.791 231.472 726.567 231.472C732.546 231.472 737.207 230.053 740.551 227.216C743.895 224.277 745.567 220.528 745.567 215.968C745.567 212.421 744.503 209.533 742.375 207.304C740.349 205.075 737.765 203.352 734.623 202.136C731.583 200.92 727.327 199.603 721.855 198.184C714.965 196.36 709.341 194.536 704.983 192.712C700.727 190.787 697.079 187.848 694.039 183.896C690.999 179.944 689.479 174.675 689.479 168.088C689.479 162.008 690.999 156.688 694.039 152.128C697.079 147.568 701.335 144.072 706.807 141.64C712.279 139.208 718.613 137.992 725.807 137.992C736.042 137.992 744.402 140.576 750.887 145.744C757.474 150.811 761.122 157.803 761.831 166.72H742.679C742.375 162.869 740.551 159.576 737.207 156.84C733.863 154.104 729.455 152.736 723.983 152.736C719.018 152.736 714.965 154.003 711.823 156.536C708.682 159.069 707.111 162.717 707.111 167.48C707.111 170.723 708.074 173.408 709.999 175.536C712.026 177.563 714.559 179.184 717.599 180.4C720.639 181.616 724.794 182.933 730.063 184.352C737.055 186.277 742.73 188.203 747.087 190.128C751.546 192.053 755.295 195.043 758.335 199.096C761.477 203.048 763.047 208.368 763.047 215.056C763.047 220.427 761.578 225.493 758.639 230.256C755.802 235.019 751.597 238.869 746.023 241.808C740.551 244.645 734.066 246.064 726.567 246.064ZM802.822 231.016H838.542V245H785.494V139.36H802.822V231.016ZM872.361 139.36V245H855.033V139.36H872.361ZM891.335 191.952C891.335 181.616 893.716 172.344 898.479 164.136C903.343 155.928 909.879 149.544 918.087 144.984C926.396 140.323 935.466 137.992 945.295 137.992C956.543 137.992 966.524 140.779 975.239 146.352C984.055 151.824 990.439 159.627 994.391 169.76H973.567C970.831 164.187 967.031 160.032 962.167 157.296C957.303 154.56 951.679 153.192 945.295 153.192C938.303 153.192 932.071 154.763 926.599 157.904C921.127 161.045 916.82 165.555 913.679 171.432C910.639 177.309 909.119 184.149 909.119 191.952C909.119 199.755 910.639 206.595 913.679 212.472C916.82 218.349 921.127 222.909 926.599 226.152C932.071 229.293 938.303 230.864 945.295 230.864C951.679 230.864 957.303 229.496 962.167 226.76C967.031 224.024 970.831 219.869 973.567 214.296H994.391C990.439 224.429 984.055 232.232 975.239 237.704C966.524 243.176 956.543 245.912 945.295 245.912C935.364 245.912 926.295 243.632 918.087 239.072C909.879 234.411 903.343 227.976 898.479 219.768C893.716 211.56 891.335 202.288 891.335 191.952ZM1034 153.344V184.352H1070.48V198.488H1034V230.864H1075.04V245H1016.67V139.208H1075.04V153.344H1034Z" fill="url(#paint3_linear_231_588)"/>
<path d="M442.272 170.824C442.272 176.195 441.005 181.261 438.472 186.024C435.939 190.787 431.885 194.688 426.312 197.728C420.739 200.667 413.595 202.136 404.88 202.136H385.728V245H368.4V139.36H404.88C412.987 139.36 419.827 140.779 425.4 143.616C431.075 146.352 435.28 150.101 438.016 154.864C440.853 159.627 442.272 164.947 442.272 170.824ZM404.88 188C411.467 188 416.381 186.531 419.624 183.592C422.867 180.552 424.488 176.296 424.488 170.824C424.488 159.272 417.952 153.496 404.88 153.496H385.728V188H404.88ZM508.982 246.064C499.153 246.064 490.084 243.784 481.774 239.224C473.566 234.563 467.03 228.128 462.166 219.92C457.404 211.611 455.022 202.288 455.022 191.952C455.022 181.616 457.404 172.344 462.166 164.136C467.03 155.928 473.566 149.544 481.774 144.984C490.084 140.323 499.153 137.992 508.982 137.992C518.913 137.992 527.982 140.323 536.19 144.984C544.5 149.544 551.036 155.928 555.798 164.136C560.561 172.344 562.942 181.616 562.942 191.952C562.942 202.288 560.561 211.611 555.798 219.92C551.036 228.128 544.5 234.563 536.19 239.224C527.982 243.784 518.913 246.064 508.982 246.064ZM508.982 231.016C515.974 231.016 522.206 229.445 527.678 226.304C533.15 223.061 537.406 218.501 540.446 212.624C543.588 206.645 545.158 199.755 545.158 191.952C545.158 184.149 543.588 177.309 540.446 171.432C537.406 165.555 533.15 161.045 527.678 157.904C522.206 154.763 515.974 153.192 508.982 153.192C501.99 153.192 495.758 154.763 490.286 157.904C484.814 161.045 480.508 165.555 477.366 171.432C474.326 177.309 472.806 184.149 472.806 191.952C472.806 199.755 474.326 206.645 477.366 212.624C480.508 218.501 484.814 223.061 490.286 226.304C495.758 229.445 501.99 231.016 508.982 231.016ZM616.498 139.36C627.746 139.36 637.575 141.539 645.986 145.896C654.498 150.152 661.034 156.333 665.594 164.44C670.255 172.445 672.586 181.819 672.586 192.56C672.586 203.301 670.255 212.624 665.594 220.528C661.034 228.432 654.498 234.512 645.986 238.768C637.575 242.923 627.746 245 616.498 245H581.994V139.36H616.498ZM616.498 230.864C628.86 230.864 638.335 227.52 644.922 220.832C651.508 214.144 654.802 204.72 654.802 192.56C654.802 180.299 651.508 170.723 644.922 163.832C638.335 156.941 628.86 153.496 616.498 153.496H599.322V230.864H616.498ZM726.567 246.064C719.474 246.064 713.09 244.848 707.415 242.416C701.741 239.883 697.282 236.336 694.039 231.776C690.797 227.216 689.175 221.896 689.175 215.816H707.719C708.125 220.376 709.898 224.125 713.039 227.064C716.282 230.003 720.791 231.472 726.567 231.472C732.546 231.472 737.207 230.053 740.551 227.216C743.895 224.277 745.567 220.528 745.567 215.968C745.567 212.421 744.503 209.533 742.375 207.304C740.349 205.075 737.765 203.352 734.623 202.136C731.583 200.92 727.327 199.603 721.855 198.184C714.965 196.36 709.341 194.536 704.983 192.712C700.727 190.787 697.079 187.848 694.039 183.896C690.999 179.944 689.479 174.675 689.479 168.088C689.479 162.008 690.999 156.688 694.039 152.128C697.079 147.568 701.335 144.072 706.807 141.64C712.279 139.208 718.613 137.992 725.807 137.992C736.042 137.992 744.402 140.576 750.887 145.744C757.474 150.811 761.122 157.803 761.831 166.72H742.679C742.375 162.869 740.551 159.576 737.207 156.84C733.863 154.104 729.455 152.736 723.983 152.736C719.018 152.736 714.965 154.003 711.823 156.536C708.682 159.069 707.111 162.717 707.111 167.48C707.111 170.723 708.074 173.408 709.999 175.536C712.026 177.563 714.559 179.184 717.599 180.4C720.639 181.616 724.794 182.933 730.063 184.352C737.055 186.277 742.73 188.203 747.087 190.128C751.546 192.053 755.295 195.043 758.335 199.096C761.477 203.048 763.047 208.368 763.047 215.056C763.047 220.427 761.578 225.493 758.639 230.256C755.802 235.019 751.597 238.869 746.023 241.808C740.551 244.645 734.066 246.064 726.567 246.064ZM802.822 231.016H838.542V245H785.494V139.36H802.822V231.016ZM872.361 139.36V245H855.033V139.36H872.361ZM891.335 191.952C891.335 181.616 893.716 172.344 898.479 164.136C903.343 155.928 909.879 149.544 918.087 144.984C926.396 140.323 935.466 137.992 945.295 137.992C956.543 137.992 966.524 140.779 975.239 146.352C984.055 151.824 990.439 159.627 994.391 169.76H973.567C970.831 164.187 967.031 160.032 962.167 157.296C957.303 154.56 951.679 153.192 945.295 153.192C938.303 153.192 932.071 154.763 926.599 157.904C921.127 161.045 916.82 165.555 913.679 171.432C910.639 177.309 909.119 184.149 909.119 191.952C909.119 199.755 910.639 206.595 913.679 212.472C916.82 218.349 921.127 222.909 926.599 226.152C932.071 229.293 938.303 230.864 945.295 230.864C951.679 230.864 957.303 229.496 962.167 226.76C967.031 224.024 970.831 219.869 973.567 214.296H994.391C990.439 224.429 984.055 232.232 975.239 237.704C966.524 243.176 956.543 245.912 945.295 245.912C935.364 245.912 926.295 243.632 918.087 239.072C909.879 234.411 903.343 227.976 898.479 219.768C893.716 211.56 891.335 202.288 891.335 191.952ZM1034 153.344V184.352H1070.48V198.488H1034V230.864H1075.04V245H1016.67V139.208H1075.04V153.344H1034Z" fill="url(#paint4_linear_231_588)"/>
<defs>
<linearGradient id="paint0_linear_231_588" x1="-213.666" y1="278.151" x2="362.078" y2="390.913" gradientUnits="userSpaceOnUse">
<stop offset="0.0480769"/>
<stop offset="0.471154" stop-color="#B09EF1"/>
<stop offset="0.817308" stop-color="#DA6BE2"/>
<stop offset="1" stop-color="#EB68F4"/>
</linearGradient>
<linearGradient id="paint1_linear_231_588" x1="567.845" y1="36.7411" x2="-15.3037" y2="-79.116" gradientUnits="userSpaceOnUse">
<stop offset="0.0480769" stop-color="#167AA2"/>
<stop offset="0.557692" stop-color="#B1ECF4"/>
<stop offset="1" stop-color="#91F9ED"/>
</linearGradient>
<linearGradient id="paint2_linear_231_588" x1="590.391" y1="60.7558" x2="7.22868" y2="-55.0494" gradientUnits="userSpaceOnUse">
<stop offset="0.322115" stop-color="#BFA6B5"/>
<stop offset="0.634615" stop-color="#7773C7"/>
<stop offset="0.793269" stop-color="#4B427E"/>
</linearGradient>
<linearGradient id="paint3_linear_231_588" x1="920.474" y1="-188.272" x2="633.504" y2="483.199" gradientUnits="userSpaceOnUse">
<stop offset="0.195452" stop-color="#F7F7F7"/>
<stop offset="0.503317" stop-color="#D3ECF0"/>
<stop offset="0.582495" stop-color="#CFDAF1"/>
<stop offset="0.881665" stop-color="#C5BEDA"/>
</linearGradient>
<linearGradient id="paint4_linear_231_588" x1="837.5" y1="-116.287" x2="837.5" y2="454.213" gradientUnits="userSpaceOnUse">
<stop offset="0.346254" stop-color="#D2E7EA"/>
<stop offset="0.418269" stop-color="#EAE9EC"/>
<stop offset="0.870192" stop-color="#B1A3E4" stop-opacity="0.49"/>
<stop offset="1" stop-color="#744EFF"/>
</linearGradient>
</defs>
</svg>
